mtllib hous.mtl
o Default
v 3.0000500679016113 -0.00021868376643396914 1.999899983406067
v 3 -0.00010430088877910748 0.9999499917030334
v 4 -0.00010934188321698457 0.9999499917030334
v 4 -0.00021868376643396914 1.999899983406067
v 4 -0.00021868376643396914 1.999899983406067
v 5 -0.00012775867071468383 0.9999499917030334
v 4 -0.00010934188321698457 0.9999499917030334
v 4.999949932098389 -0.00021868376643396914 1.999899983406067
v 4.999750137329102 -1.0004414319992065 4.999659061431885
v 5.999799728393555 -1.0004005432128906 3.9998090267181396
v 4.999849796295166 -1.0003504753112793 3.999709129333496
v 5.99970006942749 -1.0004914999008179 4.999759197235107
v 4.999899864196777 -0.0003096088476013392 2.999850034713745
v 5.999899864196777 -0.00021868832118343562 1.9999500513076782
v 4.999949932098389 -0.00021868376643396914 1.999899983406067
v 5.999849796295166 -0.00030961341690272093 2.9999001026153564
v 3.9999499320983887 -0.00030960430740378797 2.999799966812134
v 4.999949932098389 -0.00021868376643396914 1.999899983406067
v 4 -0.00021868376643396914 1.999899983406067
v 4.999899864196777 -0.0003096088476013392 2.999850034713745
v 3.0000500679016113 -0.0003095997672062367 2.9997498989105225
v 4 -0.00021868376643396914 1.999899983406067
v 3.0000500679016113 -0.00021868376643396914 1.999899983406067
v 3.9999499320983887 -0.00030960430740378797 2.999799966812134
v 3 -0.00040052030817605555 3.999650001525879
v 3.9999499320983887 -0.00030960430740378797 2.999799966812134
v 3.0000500679016113 -0.0003095997672062367 2.9997498989105225
v 3.9998998641967773 -0.0004005248483736068 3.9997000694274902
v 3.9998998641967773 -0.0004005248483736068 3.9997000694274902
v 4.999899864196777 -0.0003096088476013392 2.999850034713745
v 3.9999499320983887 -0.00030960430740378797 2.999799966812134
v 4.999849796295166 -0.00040053395787253976 3.999799966812134
v 4.999849796295166 -0.00040053395787253976 3.999799966812134
v 5.999849796295166 -0.00030961341690272093 2.9999001026153564
v 4.999899864196777 -0.0003096088476013392 2.999850034713745
v 5.999800205230713 -0.000400538498070091 3.999850034713745
v 2.9999499320983887 -1.0003914833068848 4.9994587898254395
v 3.9998998641967773 -1.0003005266189575 3.9996089935302734
v 3 -1.0003005266189575 3.999558925628662
v 3.999850034713745 -1.0003914833068848 4.999508857727051
v 3.999850034713745 -1.0003914833068848 4.999508857727051
v 4.999849796295166 -1.0003504753112793 3.999709129333496
v 3.9998998641967773 -1.0003005266189575 3.9996089935302734
v 4.999750137329102 -1.0004414319992065 4.999659061431885
v 4.999949932098389 -0.00021868376643396914 1.999899983406067
v 6 -0.00012775867071468383 0.9999499917030334
v 5 -0.00012775867071468383 0.9999499917030334
v 5.999899864196777 -0.00021868832118343562 1.9999500513076782
v 5 -0.00012775867071468383 0.9999499917030334
v 6 -1.7788978840319047e-12 5.797216484637602e-9
v 5 -1.7788978840319047e-12 5.797216484637602e-9
v 6 -0.00012775867071468383 0.9999499917030334
v 4 -0.00010934188321698457 0.9999499917030334
v 5 -1.7788978840319047e-12 5.797216484637602e-9
v 4 -9.620601841217602e-13 5.797216484637602e-9
v 5 -0.00012775867071468383 0.9999499917030334
v 3 -0.00010430088877910748 0.9999499917030334
v 4 -9.620601841217602e-13 5.797216484637602e-9
v 3 1.4470188285445329e-12 5.797216484637602e-9
v 4 -0.00010934188321698457 0.9999499917030334
v 4.999849796295166 -1.0003504753112793 3.999709129333496
v 5.999800205230713 -0.000400538498070091 3.999850034713745
v 4.999849796295166 -0.00040053395787253976 3.999799966812134
v 5.999799728393555 -1.0004005432128906 3.9998090267181396
v 3.9998998641967773 -1.0003005266189575 3.9996089935302734
v 4.999849796295166 -0.00040053395787253976 3.999799966812134
v 3.9998998641967773 -0.0004005248483736068 3.9997000694274902
v 4.999849796295166 -1.0003504753112793 3.999709129333496
v 3 -1.0003005266189575 3.999558925628662
v 3.9998998641967773 -0.0004005248483736068 3.9997000694274902
v 3 -0.00040052030817605555 3.999650001525879
v 3.9998998641967773 -1.0003005266189575 3.9996089935302734
vt 0.4375 0.9375
vt 0.5 1
vt 0.4375 1
vt 0.4375 0.9375
vt 0.5 0.9375
vt 0.5 1
vt 0.4375 0.9375
vt 0.5 1
vt 0.4375 1
vt 0.4375 0.9375
vt 0.5 0.9375
vt 0.5 1
vt 0.375 0.125
vt 0.4375 0.1875
vt 0.375 0.1875
vt 0.375 0.125
vt 0.4375 0.125
vt 0.4375 0.1875
vt 0.4375 0.9375
vt 0.5 1
vt 0.4375 1
vt 0.4375 0.9375
vt 0.5 0.9375
vt 0.5 1
vt 0.4375 0.9375
vt 0.5 1
vt 0.4375 1
vt 0.4375 0.9375
vt 0.5 0.9375
vt 0.5 1
vt 0.4375 0.9375
vt 0.5 1
vt 0.4375 1
vt 0.4375 0.9375
vt 0.5 0.9375
vt 0.5 1
vt 0.25 0.25
vt 0.3125 0.3125
vt 0.25 0.3125
vt 0.25 0.25
vt 0.3125 0.25
vt 0.3125 0.3125
vt 0.3125 0.25
vt 0.375 0.3125
vt 0.3125 0.3125
vt 0.3125 0.25
vt 0.375 0.25
vt 0.375 0.3125
vt 0.375 0.25
vt 0.4375 0.3125
vt 0.375 0.3125
vt 0.375 0.25
vt 0.4375 0.25
vt 0.4375 0.3125
vt 0.25 0.125
vt 0.3125 0.1875
vt 0.25 0.1875
vt 0.25 0.125
vt 0.3125 0.125
vt 0.3125 0.1875
vt 0.3125 0.125
vt 0.375 0.1875
vt 0.3125 0.1875
vt 0.3125 0.125
vt 0.375 0.125
vt 0.375 0.1875
vt 0.4375 0.9375
vt 0.5 1
vt 0.4375 1
vt 0.4375 0.9375
vt 0.5 0.9375
vt 0.5 1
vt 0.4375 0.9375
vt 0.5 1
vt 0.4375 1
vt 0.4375 0.9375
vt 0.5 0.9375
vt 0.5 1
vt 0.4375 0.9375
vt 0.5 1
vt 0.4375 1
vt 0.4375 0.9375
vt 0.5 0.9375
vt 0.5 1
vt 0.4375 0.9375
vt 0.5 1
vt 0.4375 1
vt 0.4375 0.9375
vt 0.5 0.9375
vt 0.5 1
vt 0.25 0.1875
vt 0.3125 0.25
vt 0.25 0.25
vt 0.25 0.1875
vt 0.3125 0.1875
vt 0.3125 0.25
vt 0.25 0.1875
vt 0.3125 0.25
vt 0.25 0.25
vt 0.25 0.1875
vt 0.3125 0.1875
vt 0.3125 0.25
vt 0.25 0.1875
vt 0.3125 0.25
vt 0.25 0.25
vt 0.25 0.1875
vt 0.3125 0.1875
vt 0.3125 0.25
vn 0.000005040994404833105 0.9999999934449475 0.00011438834487938425
vn 0.000005040994404833105 0.9999999934449475 0.00011438834487938425
vn 0.000005040994404833105 0.9999999934449475 0.00011438834487938425
vn 0 0.9999999940215784 0.00010934735083808591
vn 0 0.9999999940215784 0.00010934735083808591
vn 0 0.9999999940215784 0.00010934735083808591
vn 0.000018416787384472653 0.9999999938519893 0.0001093473508195418
vn 0.000018416787384472653 0.9999999938519893 0.0001093473508195418
vn 0.000018416787384472653 0.9999999938519893 0.0001093473508195418
vn 0 0.9999999958659002 0.00009092964257996108
vn 0 0.9999999958659002 0.00009092964257996108
vn 0 0.9999999958659002 0.00009092964257996108
vn 0.00005006132051814131 0.9999999946095046 0.00009096623098469004
vn 0.00005006132051814131 0.9999999946095046 0.00009096623098469004
vn 0.00005006132051814131 0.9999999946095046 0.00009096623098469004
vn 0.00005006129883118818 0.9999999946095075 0.00009096620929340861
vn 0.00005006129883118818 0.9999999946095075 0.00009096620929340861
vn 0.00005006129883118818 0.9999999946095075 0.00009096620929340861
vn 2.0941542402426316e-12 0.9999999958659017 0.00009092962260732427
vn 2.0941542402426316e-12 0.9999999958659017 0.00009092962260732427
vn 2.0941542402426316e-12 0.9999999958659017 0.00009092962260732427
vn 1.664606933557265e-11 0.9999999958659004 0.00009092963716069482
vn 1.664606933557265e-11 0.9999999958659004 0.00009092963716069482
vn 1.664606933557265e-11 0.9999999958659004 0.00009092963716069482
vn 0 0.9999999958659007 0.0000909296350663312
vn 0 0.9999999958659007 0.0000909296350663312
vn 0 0.9999999958659007 0.0000909296350663312
vn -1.2458489511818422e-11 0.9999999958659017 0.0000909296226065956
vn -1.2458489511818422e-11 0.9999999958659017 0.0000909296226065956
vn -1.2458489511818422e-11 0.9999999958659017 0.0000909296226065956
vn 0 0.9999999958658997 0.00009092964752669079
vn 0 0.9999999958658997 0.00009092964752669079
vn 0 0.9999999958658997 0.00009092964752669079
vn -1.2459737208768257e-11 0.9999999958659006 0.0000909296350657073
vn -1.2459737208768257e-11 0.9999999958659006 0.0000909296350657073
vn -1.2459737208768257e-11 0.9999999958659006 0.0000909296350657073
vn -1.2459194381301598e-11 0.9999999958659018 0.00009092962422496727
vn -1.2459194381301598e-11 0.9999999958659018 0.00009092962422496727
vn -1.2459194381301598e-11 0.9999999958659018 0.00009092962422496727
vn -1.2459194381301598e-11 0.9999999958659018 0.00009092962422496727
vn -1.2459194381301598e-11 0.9999999958659018 0.00009092962422496727
vn -1.2459194381301598e-11 0.9999999958659018 0.00009092962422496727
vn -1.2458570544350515e-11 0.9999999958659016 0.0000909296242249673
vn -1.2458570544350515e-11 0.9999999958659016 0.0000909296242249673
vn -1.2458570544350515e-11 0.9999999958659016 0.0000909296242249673
vn 2.5864714624453772e-11 0.9999999958658983 0.00009092966255400017
vn 2.5864714624453772e-11 0.9999999958658983 0.00009092966255400017
vn 2.5864714624453772e-11 0.9999999958658983 0.00009092966255400017
vn 1.664479790550396e-11 0.9999999958658982 0.00009092966255353853
vn 1.664479790550396e-11 0.9999999958658982 0.00009092966255353853
vn 1.664479790550396e-11 0.9999999958658982 0.00009092966255353853
vn -1.2459026344055622e-11 0.9999999958659008 0.00009092963344679989
vn -1.2459026344055622e-11 0.9999999958659008 0.00009092963344679989
vn -1.2459026344055622e-11 0.9999999958659008 0.00009092963344679989
vn -4.554922647776548e-9 0.9999999958626118 0.00009096579625594142
vn -4.554922647776548e-9 0.9999999958626118 0.00009096579625594142
vn -4.554922647776548e-9 0.9999999958626118 0.00009096579625594142
vn -4.5549215617442515e-9 0.9999999958626119 0.00009096579625702757
vn -4.5549215617442515e-9 0.9999999958626119 0.00009096579625702757
vn -4.5549215617442515e-9 0.9999999958626119 0.00009096579625702757
vn 0.00004994208336582674 0.9999999946152796 0.00009096828520797251
vn 0.00004994208336582674 0.9999999946152796 0.00009096828520797251
vn 0.00004994208336582674 0.9999999946152796 0.00009096828520797251
vn 0.000049940017466873264 0.9999999946155708 0.00009096621889569986
vn 0.000049940017466873264 0.9999999946155708 0.00009096621889569986
vn 0.000049940017466873264 0.9999999946155708 0.00009096621889569986
vn 0 0.9999999958659 0.00009092964257996108
vn 0 0.9999999958659 0.00009092964257996108
vn 0 0.9999999958659 0.00009092964257996108
vn 2.09304939182342e-12 0.9999999958658998 0.00009092964467321991
vn 2.09304939182342e-12 0.9999999958658998 0.00009092964467321991
vn 2.09304939182342e-12 0.9999999958658998 0.00009092964467321991
vn 0 0.999999991838045 0.0001277650579466669
vn 0 0.999999991838045 0.0001277650579466669
vn 0 0.999999991838045 0.0001277650579466669
vn 0 0.999999991838045 0.0001277650579466669
vn 0 0.999999991838045 0.0001277650579466669
vn 0 0.999999991838045 0.0001277650579466669
vn 8.168376950267445e-13 0.9999999940215785 0.00010934735050991959
vn 8.168376950267445e-13 0.9999999940215785 0.00010934735050991959
vn 8.168376950267445e-13 0.9999999940215785 0.00010934735050991959
vn 0.00001841678734425898 0.9999999916684559 0.0001277650579249993
vn 0.00001841678734425898 0.9999999916684559 0.0001277650579249993
vn 0.00001841678734425898 0.9999999916684559 0.0001277650579249993
vn 2.4090789995611874e-12 0.999999994560118 0.00010430610643417284
vn 2.4090789995611874e-12 0.999999994560118 0.00010430610643417284
vn 2.4090789995611874e-12 0.999999994560118 0.00010430610643417284
vn 0.000005040994407675849 0.9999999940088725 0.00010934735050853024
vn 0.000005040994407675849 0.9999999940088725 0.00010934735050853024
vn 0.000005040994407675849 0.9999999940088725 0.00010934735050853024
vn -0.000050070384798100366 -0.00009084202557787491 0.9999999946203414
vn -0.000050070384798100366 -0.00009084202557787491 0.9999999946203414
vn -0.000050070384798100366 -0.00009084202557787491 0.9999999946203414
vn -0.0000999044392485429 -0.000041007947534845855 0.9999999941687255
vn -0.0000999044392485429 -0.000041007947534845855 0.9999999941687255
vn -0.0000999044392485429 -0.000041007947534845855 0.9999999941687255
vn -0.0000999023864632391 -0.0000910850047237001 0.9999999908615174
vn -0.0000999023864632391 -0.0000910850047237001 0.9999999908615174
vn -0.0000999023864632391 -0.0000910850047237001 0.9999999908615174
vn -0.00010014535381543672 -0.00009084202523621586 0.9999999908593172
vn -0.00010014535381543672 -0.00009084202523621586 0.9999999908593172
vn -0.00010014535381543672 -0.00009084202523621586 0.9999999908593172
vn -0.00005007291584605882 -0.00009108500465046262 0.9999999945981126
vn -0.00005007291584605882 -0.00009108500465046262 0.9999999945981126
vn -0.00005007291584605882 -0.00009108500465046262 0.9999999945981126
vn -0.00005007291543247349 -0.0000910850050640479 0.9999999945981126
vn -0.00005007291543247349 -0.0000910850050640479 0.9999999945981126
vn -0.00005007291543247349 -0.0000910850050640479 0.9999999945981126
g Scene
usemtl material0
f 1/1/1 3/2/2 2/3/3
f 1/4/4 4/5/5 3/6/6
f 5/7/7 6/8/8 7/9/9
f 5/10/10 8/11/11 6/12/12
f 9/13/13 10/14/14 11/15/15
f 9/16/16 12/17/17 10/18/18
f 13/19/19 14/20/20 15/21/21
f 13/22/22 16/23/23 14/24/24
f 17/25/25 18/26/26 19/27/27
f 17/28/28 20/29/29 18/30/30
f 21/31/31 22/32/32 23/33/33
f 21/34/34 24/35/35 22/36/36
f 25/37/37 26/38/38 27/39/39
f 25/40/40 28/41/41 26/42/42
f 29/43/43 30/44/44 31/45/45
f 29/46/46 32/47/47 30/48/48
f 33/49/49 34/50/50 35/51/51
f 33/52/52 36/53/53 34/54/54
f 37/55/55 38/56/56 39/57/57
f 37/58/58 40/59/59 38/60/60
f 41/61/61 42/62/62 43/63/63
f 41/64/64 44/65/65 42/66/66
f 45/67/67 46/68/68 47/69/69
f 45/70/70 48/71/71 46/72/72
f 49/73/73 50/74/74 51/75/75
f 49/76/76 52/77/77 50/78/78
f 53/79/79 54/80/80 55/81/81
f 53/82/82 56/83/83 54/84/84
f 57/85/85 58/86/86 59/87/87
f 57/88/88 60/89/89 58/90/90
f 61/91/91 62/92/92 63/93/93
f 61/94/94 64/95/95 62/96/96
f 65/97/97 66/98/98 67/99/99
f 65/100/100 68/101/101 66/102/102
f 69/103/103 70/104/104 71/105/105
f 69/106/106 72/107/107 70/108/108
